<mxfile host="app.diagrams.net" modified="2023-10-23T11:38:56.446Z" agent="Mozilla/5.0 (Windows NT 10.0; Win64; x64) AppleWebKit/537.36 (KHTML, like Gecko) Chrome/118.0.0.0 Safari/537.36 Edg/118.0.2088.61" etag="7ralG-aZRmyfiGOpjMjc" version="22.0.6" type="device">
  <diagram id="C5RBs43oDa-KdzZeNtuy" name="Page-1">
    <mxGraphModel dx="1042" dy="587" grid="1" gridSize="10" guides="1" tooltips="1" connect="1" arrows="1" fold="1" page="1" pageScale="1" pageWidth="827" pageHeight="1169" math="0" shadow="0">
      <root>
        <mxCell id="WIyWlLk6GJQsqaUBKTNV-0" />
        <mxCell id="WIyWlLk6GJQsqaUBKTNV-1" parent="WIyWlLk6GJQsqaUBKTNV-0" />
        <mxCell id="qRvvch7rWBQE1HqDb9X6-6" value="" style="edgeStyle=orthogonalEdgeStyle;rounded=0;orthogonalLoop=1;jettySize=auto;html=1;" parent="WIyWlLk6GJQsqaUBKTNV-1" source="qRvvch7rWBQE1HqDb9X6-0" edge="1">
          <mxGeometry relative="1" as="geometry">
            <mxPoint x="430" y="130" as="targetPoint" />
          </mxGeometry>
        </mxCell>
        <mxCell id="qRvvch7rWBQE1HqDb9X6-0" value="начало" style="ellipse;whiteSpace=wrap;html=1;" parent="WIyWlLk6GJQsqaUBKTNV-1" vertex="1">
          <mxGeometry x="380" y="60" width="100" height="50" as="geometry" />
        </mxCell>
        <mxCell id="qRvvch7rWBQE1HqDb9X6-8" value="&lt;span style=&quot;font-size: 6px;&quot;&gt;data = readexel(&quot;filename&quot;)&lt;br&gt;df = DataFrame(data)&lt;br&gt;depersonalized_df = df.copy()&lt;br&gt;&lt;/span&gt;" style="whiteSpace=wrap;html=1;" parent="WIyWlLk6GJQsqaUBKTNV-1" vertex="1">
          <mxGeometry x="380" y="130" width="100" height="50" as="geometry" />
        </mxCell>
        <mxCell id="qRvvch7rWBQE1HqDb9X6-18" style="edgeStyle=orthogonalEdgeStyle;rounded=0;orthogonalLoop=1;jettySize=auto;html=1;" parent="WIyWlLk6GJQsqaUBKTNV-1" edge="1">
          <mxGeometry relative="1" as="geometry">
            <mxPoint x="430" y="200" as="targetPoint" />
            <mxPoint x="430" y="180" as="sourcePoint" />
          </mxGeometry>
        </mxCell>
        <mxCell id="qRvvch7rWBQE1HqDb9X6-12" value="&lt;font style=&quot;&quot;&gt;&lt;font style=&quot;font-size: 4px;&quot;&gt;ввод&lt;/font&gt;&lt;br&gt;&lt;/font&gt;&lt;font style=&quot;font-size: 4px;&quot;&gt;&lt;font style=&quot;font-size: 4px;&quot;&gt;режим работы программы&lt;br&gt;квази-идентификаторы,&amp;nbsp;&lt;br&gt;&lt;/font&gt;&lt;br&gt;&lt;/font&gt;" style="text;html=1;strokeColor=none;fillColor=none;align=center;verticalAlign=middle;whiteSpace=wrap;rounded=0;" parent="WIyWlLk6GJQsqaUBKTNV-1" vertex="1">
          <mxGeometry x="400" y="267.5" width="60" height="25" as="geometry" />
        </mxCell>
        <mxCell id="qRvvch7rWBQE1HqDb9X6-21" style="edgeStyle=orthogonalEdgeStyle;rounded=0;orthogonalLoop=1;jettySize=auto;html=1;exitX=0.5;exitY=1;exitDx=0;exitDy=0;" parent="WIyWlLk6GJQsqaUBKTNV-1" source="qRvvch7rWBQE1HqDb9X6-19" target="qRvvch7rWBQE1HqDb9X6-22" edge="1">
          <mxGeometry relative="1" as="geometry">
            <mxPoint x="429.8947368421053" y="260" as="targetPoint" />
          </mxGeometry>
        </mxCell>
        <mxCell id="qRvvch7rWBQE1HqDb9X6-19" value="" style="shape=process;whiteSpace=wrap;html=1;backgroundOutline=1;" parent="WIyWlLk6GJQsqaUBKTNV-1" vertex="1">
          <mxGeometry x="380" y="200" width="100" height="40" as="geometry" />
        </mxCell>
        <mxCell id="qRvvch7rWBQE1HqDb9X6-20" value="&lt;font style=&quot;font-size: 6px;&quot;&gt;def&amp;nbsp;start_processing()&lt;/font&gt;" style="text;html=1;strokeColor=none;fillColor=none;align=center;verticalAlign=middle;whiteSpace=wrap;rounded=0;" parent="WIyWlLk6GJQsqaUBKTNV-1" vertex="1">
          <mxGeometry x="400" y="205" width="60" height="30" as="geometry" />
        </mxCell>
        <mxCell id="qRvvch7rWBQE1HqDb9X6-30" style="edgeStyle=orthogonalEdgeStyle;rounded=0;orthogonalLoop=1;jettySize=auto;html=1;exitX=0.5;exitY=1;exitDx=0;exitDy=0;entryX=0.5;entryY=0;entryDx=0;entryDy=0;" parent="WIyWlLk6GJQsqaUBKTNV-1" source="qRvvch7rWBQE1HqDb9X6-22" target="qRvvch7rWBQE1HqDb9X6-24" edge="1">
          <mxGeometry relative="1" as="geometry" />
        </mxCell>
        <mxCell id="qRvvch7rWBQE1HqDb9X6-22" value="" style="shape=parallelogram;perimeter=parallelogramPerimeter;whiteSpace=wrap;html=1;fixedSize=1;strokeWidth=1;fillColor=none;" parent="WIyWlLk6GJQsqaUBKTNV-1" vertex="1">
          <mxGeometry x="380" y="260" width="100" height="40" as="geometry" />
        </mxCell>
        <mxCell id="qRvvch7rWBQE1HqDb9X6-33" style="edgeStyle=orthogonalEdgeStyle;rounded=0;orthogonalLoop=1;jettySize=auto;html=1;exitX=1;exitY=0.5;exitDx=0;exitDy=0;" parent="WIyWlLk6GJQsqaUBKTNV-1" source="qRvvch7rWBQE1HqDb9X6-24" edge="1">
          <mxGeometry relative="1" as="geometry">
            <mxPoint x="520" y="345.1333333333333" as="targetPoint" />
          </mxGeometry>
        </mxCell>
        <mxCell id="qRvvch7rWBQE1HqDb9X6-34" value="да" style="edgeLabel;html=1;align=center;verticalAlign=middle;resizable=0;points=[];" parent="qRvvch7rWBQE1HqDb9X6-33" vertex="1" connectable="0">
          <mxGeometry x="-0.2135" y="1" relative="1" as="geometry">
            <mxPoint as="offset" />
          </mxGeometry>
        </mxCell>
        <mxCell id="HE1zx7FEbfYDqOnXOn9r-27" style="edgeStyle=orthogonalEdgeStyle;rounded=0;orthogonalLoop=1;jettySize=auto;html=1;exitX=0;exitY=0.5;exitDx=0;exitDy=0;" edge="1" parent="WIyWlLk6GJQsqaUBKTNV-1" source="qRvvch7rWBQE1HqDb9X6-24">
          <mxGeometry relative="1" as="geometry">
            <mxPoint x="340" y="345.05555555555554" as="targetPoint" />
          </mxGeometry>
        </mxCell>
        <mxCell id="HE1zx7FEbfYDqOnXOn9r-29" value="нет" style="edgeLabel;html=1;align=center;verticalAlign=middle;resizable=0;points=[];" vertex="1" connectable="0" parent="HE1zx7FEbfYDqOnXOn9r-27">
          <mxGeometry x="-0.128" y="-1" relative="1" as="geometry">
            <mxPoint as="offset" />
          </mxGeometry>
        </mxCell>
        <mxCell id="qRvvch7rWBQE1HqDb9X6-24" value="" style="rhombus;whiteSpace=wrap;html=1;" parent="WIyWlLk6GJQsqaUBKTNV-1" vertex="1">
          <mxGeometry x="380" y="320" width="100" height="50" as="geometry" />
        </mxCell>
        <mxCell id="qRvvch7rWBQE1HqDb9X6-32" value="&lt;font style=&quot;font-size: 4px;&quot;&gt;режим работы = &quot;Calculate K-Anonymity&quot;&lt;/font&gt;" style="text;html=1;strokeColor=none;fillColor=none;align=center;verticalAlign=middle;whiteSpace=wrap;rounded=0;" parent="WIyWlLk6GJQsqaUBKTNV-1" vertex="1">
          <mxGeometry x="405" y="335" width="50" height="20" as="geometry" />
        </mxCell>
        <mxCell id="HE1zx7FEbfYDqOnXOn9r-2" value="" style="edgeStyle=orthogonalEdgeStyle;rounded=0;orthogonalLoop=1;jettySize=auto;html=1;" edge="1" parent="WIyWlLk6GJQsqaUBKTNV-1" source="HE1zx7FEbfYDqOnXOn9r-0" target="HE1zx7FEbfYDqOnXOn9r-1">
          <mxGeometry relative="1" as="geometry">
            <Array as="points">
              <mxPoint x="575" y="380" />
              <mxPoint x="575" y="380" />
            </Array>
          </mxGeometry>
        </mxCell>
        <mxCell id="HE1zx7FEbfYDqOnXOn9r-0" value="&lt;font style=&quot;font-size: 8px;&quot;&gt;calculate_k_anonymity&lt;/font&gt;" style="shape=process;whiteSpace=wrap;html=1;backgroundOutline=1;" vertex="1" parent="WIyWlLk6GJQsqaUBKTNV-1">
          <mxGeometry x="520" y="320" width="110" height="50" as="geometry" />
        </mxCell>
        <mxCell id="HE1zx7FEbfYDqOnXOn9r-4" value="" style="edgeStyle=orthogonalEdgeStyle;rounded=0;orthogonalLoop=1;jettySize=auto;html=1;" edge="1" parent="WIyWlLk6GJQsqaUBKTNV-1" source="HE1zx7FEbfYDqOnXOn9r-1" target="HE1zx7FEbfYDqOnXOn9r-3">
          <mxGeometry relative="1" as="geometry" />
        </mxCell>
        <mxCell id="HE1zx7FEbfYDqOnXOn9r-1" value="&lt;font style=&quot;font-size: 7px;&quot;&gt;is_k_anonymous_for_k(k)&lt;/font&gt;" style="shape=process;whiteSpace=wrap;html=1;backgroundOutline=1;" vertex="1" parent="WIyWlLk6GJQsqaUBKTNV-1">
          <mxGeometry x="520" y="390" width="110" height="50" as="geometry" />
        </mxCell>
        <mxCell id="HE1zx7FEbfYDqOnXOn9r-7" value="" style="edgeStyle=orthogonalEdgeStyle;rounded=0;orthogonalLoop=1;jettySize=auto;html=1;" edge="1" parent="WIyWlLk6GJQsqaUBKTNV-1" source="HE1zx7FEbfYDqOnXOn9r-3" target="HE1zx7FEbfYDqOnXOn9r-6">
          <mxGeometry relative="1" as="geometry" />
        </mxCell>
        <mxCell id="HE1zx7FEbfYDqOnXOn9r-3" value="&lt;font style=&quot;font-size: 7px;&quot;&gt;res =&amp;nbsp;is_k_anonymous_for_k(k)&lt;/font&gt;" style="whiteSpace=wrap;html=1;" vertex="1" parent="WIyWlLk6GJQsqaUBKTNV-1">
          <mxGeometry x="520" y="460" width="110" height="50" as="geometry" />
        </mxCell>
        <mxCell id="HE1zx7FEbfYDqOnXOn9r-14" style="edgeStyle=orthogonalEdgeStyle;rounded=0;orthogonalLoop=1;jettySize=auto;html=1;exitX=0.5;exitY=1;exitDx=0;exitDy=0;entryX=0.5;entryY=0;entryDx=0;entryDy=0;" edge="1" parent="WIyWlLk6GJQsqaUBKTNV-1" source="HE1zx7FEbfYDqOnXOn9r-6" target="HE1zx7FEbfYDqOnXOn9r-13">
          <mxGeometry relative="1" as="geometry">
            <mxPoint x="574.952380952381" y="620" as="targetPoint" />
          </mxGeometry>
        </mxCell>
        <mxCell id="HE1zx7FEbfYDqOnXOn9r-22" value="да" style="edgeLabel;html=1;align=center;verticalAlign=middle;resizable=0;points=[];" vertex="1" connectable="0" parent="HE1zx7FEbfYDqOnXOn9r-14">
          <mxGeometry x="-0.2813" y="-2" relative="1" as="geometry">
            <mxPoint as="offset" />
          </mxGeometry>
        </mxCell>
        <mxCell id="HE1zx7FEbfYDqOnXOn9r-23" style="edgeStyle=orthogonalEdgeStyle;rounded=0;orthogonalLoop=1;jettySize=auto;html=1;exitX=0;exitY=0.5;exitDx=0;exitDy=0;" edge="1" parent="WIyWlLk6GJQsqaUBKTNV-1" source="HE1zx7FEbfYDqOnXOn9r-6">
          <mxGeometry relative="1" as="geometry">
            <mxPoint x="500" y="380" as="targetPoint" />
          </mxGeometry>
        </mxCell>
        <mxCell id="HE1zx7FEbfYDqOnXOn9r-25" value="нет" style="edgeLabel;html=1;align=center;verticalAlign=middle;resizable=0;points=[];" vertex="1" connectable="0" parent="HE1zx7FEbfYDqOnXOn9r-23">
          <mxGeometry x="0.2243" y="-1" relative="1" as="geometry">
            <mxPoint as="offset" />
          </mxGeometry>
        </mxCell>
        <mxCell id="HE1zx7FEbfYDqOnXOn9r-6" value="res = True?" style="rhombus;whiteSpace=wrap;html=1;" vertex="1" parent="WIyWlLk6GJQsqaUBKTNV-1">
          <mxGeometry x="538.75" y="530" width="72.5" height="70" as="geometry" />
        </mxCell>
        <mxCell id="HE1zx7FEbfYDqOnXOn9r-18" style="edgeStyle=orthogonalEdgeStyle;rounded=0;orthogonalLoop=1;jettySize=auto;html=1;exitX=0.5;exitY=1;exitDx=0;exitDy=0;entryX=0.5;entryY=0;entryDx=0;entryDy=0;" edge="1" parent="WIyWlLk6GJQsqaUBKTNV-1" source="HE1zx7FEbfYDqOnXOn9r-13" target="HE1zx7FEbfYDqOnXOn9r-15">
          <mxGeometry relative="1" as="geometry" />
        </mxCell>
        <mxCell id="HE1zx7FEbfYDqOnXOn9r-13" value="get_bad_value" style="shape=process;whiteSpace=wrap;html=1;backgroundOutline=1;" vertex="1" parent="WIyWlLk6GJQsqaUBKTNV-1">
          <mxGeometry x="520.63" y="620" width="108.75" height="50" as="geometry" />
        </mxCell>
        <mxCell id="HE1zx7FEbfYDqOnXOn9r-21" style="edgeStyle=orthogonalEdgeStyle;rounded=0;orthogonalLoop=1;jettySize=auto;html=1;exitX=0.5;exitY=1;exitDx=0;exitDy=0;entryX=0.5;entryY=0;entryDx=0;entryDy=0;" edge="1" parent="WIyWlLk6GJQsqaUBKTNV-1" source="HE1zx7FEbfYDqOnXOn9r-15" target="HE1zx7FEbfYDqOnXOn9r-19">
          <mxGeometry relative="1" as="geometry" />
        </mxCell>
        <mxCell id="HE1zx7FEbfYDqOnXOn9r-15" value="five_bad = get_bad_value" style="whiteSpace=wrap;html=1;" vertex="1" parent="WIyWlLk6GJQsqaUBKTNV-1">
          <mxGeometry x="520.63" y="690" width="110.01" height="50" as="geometry" />
        </mxCell>
        <mxCell id="HE1zx7FEbfYDqOnXOn9r-19" value="&lt;font style=&quot;font-size: 8px;&quot;&gt;вывод k_anonimity&lt;br&gt;five_bad_value&lt;/font&gt;" style="shape=parallelogram;perimeter=parallelogramPerimeter;whiteSpace=wrap;html=1;fixedSize=1;" vertex="1" parent="WIyWlLk6GJQsqaUBKTNV-1">
          <mxGeometry x="520" y="760" width="110" height="50" as="geometry" />
        </mxCell>
        <mxCell id="HE1zx7FEbfYDqOnXOn9r-24" value="" style="endArrow=classic;html=1;rounded=0;" edge="1" parent="WIyWlLk6GJQsqaUBKTNV-1">
          <mxGeometry width="50" height="50" relative="1" as="geometry">
            <mxPoint x="500" y="380" as="sourcePoint" />
            <mxPoint x="570" y="380" as="targetPoint" />
          </mxGeometry>
        </mxCell>
        <mxCell id="HE1zx7FEbfYDqOnXOn9r-26" value="k = k/2" style="edgeLabel;html=1;align=center;verticalAlign=middle;resizable=0;points=[];" vertex="1" connectable="0" parent="HE1zx7FEbfYDqOnXOn9r-24">
          <mxGeometry x="-0.2381" y="1" relative="1" as="geometry">
            <mxPoint as="offset" />
          </mxGeometry>
        </mxCell>
        <mxCell id="HE1zx7FEbfYDqOnXOn9r-30" style="edgeStyle=orthogonalEdgeStyle;rounded=0;orthogonalLoop=1;jettySize=auto;html=1;exitX=0.5;exitY=1;exitDx=0;exitDy=0;" edge="1" parent="WIyWlLk6GJQsqaUBKTNV-1" source="HE1zx7FEbfYDqOnXOn9r-28">
          <mxGeometry relative="1" as="geometry">
            <mxPoint x="284.95238095238096" y="390" as="targetPoint" />
          </mxGeometry>
        </mxCell>
        <mxCell id="HE1zx7FEbfYDqOnXOn9r-28" value="&lt;font style=&quot;font-size: 9px;&quot;&gt;anonymize_dataset&lt;/font&gt;" style="shape=process;whiteSpace=wrap;html=1;backgroundOutline=1;" vertex="1" parent="WIyWlLk6GJQsqaUBKTNV-1">
          <mxGeometry x="231" y="320" width="110" height="50" as="geometry" />
        </mxCell>
        <mxCell id="HE1zx7FEbfYDqOnXOn9r-33" value="" style="edgeStyle=orthogonalEdgeStyle;rounded=0;orthogonalLoop=1;jettySize=auto;html=1;" edge="1" parent="WIyWlLk6GJQsqaUBKTNV-1" source="HE1zx7FEbfYDqOnXOn9r-31" target="HE1zx7FEbfYDqOnXOn9r-32">
          <mxGeometry relative="1" as="geometry" />
        </mxCell>
        <mxCell id="HE1zx7FEbfYDqOnXOn9r-31" value="get_season" style="shape=process;whiteSpace=wrap;html=1;backgroundOutline=1;" vertex="1" parent="WIyWlLk6GJQsqaUBKTNV-1">
          <mxGeometry x="230" y="390" width="110" height="50" as="geometry" />
        </mxCell>
        <mxCell id="HE1zx7FEbfYDqOnXOn9r-35" value="" style="edgeStyle=orthogonalEdgeStyle;rounded=0;orthogonalLoop=1;jettySize=auto;html=1;" edge="1" parent="WIyWlLk6GJQsqaUBKTNV-1" source="HE1zx7FEbfYDqOnXOn9r-32">
          <mxGeometry relative="1" as="geometry">
            <mxPoint x="284.9999999999999" y="530" as="targetPoint" />
          </mxGeometry>
        </mxCell>
        <mxCell id="HE1zx7FEbfYDqOnXOn9r-32" value="&lt;font style=&quot;font-size: 11px;&quot;&gt;obfuscate_email&lt;/font&gt;" style="shape=process;whiteSpace=wrap;html=1;backgroundOutline=1;" vertex="1" parent="WIyWlLk6GJQsqaUBKTNV-1">
          <mxGeometry x="230" y="460" width="110" height="50" as="geometry" />
        </mxCell>
        <mxCell id="HE1zx7FEbfYDqOnXOn9r-40" value="" style="edgeStyle=orthogonalEdgeStyle;rounded=0;orthogonalLoop=1;jettySize=auto;html=1;" edge="1" parent="WIyWlLk6GJQsqaUBKTNV-1" source="HE1zx7FEbfYDqOnXOn9r-38" target="HE1zx7FEbfYDqOnXOn9r-39">
          <mxGeometry relative="1" as="geometry" />
        </mxCell>
        <mxCell id="HE1zx7FEbfYDqOnXOn9r-38" value="&lt;div style=&quot;font-size: 6px;&quot;&gt;&lt;font style=&quot;font-size: 6px;&quot;&gt;del depersonalized_df[&#39;IP&#39;]&lt;/font&gt;&lt;/div&gt;&lt;div style=&quot;font-size: 6px;&quot;&gt;&lt;font style=&quot;font-size: 6px;&quot;&gt;&lt;font style=&quot;font-size: 6px;&quot;&gt;depersonalized_df&lt;/font&gt;&lt;font style=&quot;font-size: 6px;&quot;&gt;[&#39;&lt;/font&gt;&lt;font style=&quot;font-size: 6px;&quot;&gt;Дата &lt;/font&gt;&lt;font style=&quot;font-size: 6px;&quot;&gt;просмотра&#39;] = df[&#39;Дата просмотра&#39;].apply(get_season)&lt;br&gt;&lt;/font&gt;&lt;/font&gt;&lt;/div&gt;&lt;div style=&quot;font-size: 6px;&quot;&gt;&lt;font style=&quot;font-size: 6px;&quot;&gt;depersonalized_df[&#39;Пользователь&#39;] = df[&#39;Пользователь&#39;].apply(obfuscate_email)&lt;/font&gt;&lt;br&gt;&lt;/div&gt;" style="whiteSpace=wrap;html=1;" vertex="1" parent="WIyWlLk6GJQsqaUBKTNV-1">
          <mxGeometry x="225" y="530" width="120" height="70" as="geometry" />
        </mxCell>
        <mxCell id="HE1zx7FEbfYDqOnXOn9r-39" value="сохранение обезличенного df в exel" style="whiteSpace=wrap;html=1;" vertex="1" parent="WIyWlLk6GJQsqaUBKTNV-1">
          <mxGeometry x="225" y="620" width="120" height="60" as="geometry" />
        </mxCell>
      </root>
    </mxGraphModel>
  </diagram>
</mxfile>
